<?xml version="1.0" encoding="utf-8"?>
<!-- Generator: Adobe Illustrator 19.0.0, SVG Export Plug-In . SVG Version: 6.00 Build 0)  -->
<svg version="1.1" id="Camada_1" xmlns="http://www.w3.org/2000/svg" xmlns:xlink="http://www.w3.org/1999/xlink" x="0px" y="0px"
	 viewBox="0 0 841.9 595.3" style="enable-background:new 0 0 841.9 595.3;" xml:space="preserve">
<g id="XMLID_213_">
	<g id="XMLID_292_">
		<g id="XMLID_296_">
			<polygon id="XMLID_317_" points="587.9,271.5 587.9,374.4 554.2,374.4 554.2,307.9 539,307.9 539,490.1 554.2,490.1 554.2,387.2 
				587.9,387.2 587.9,453.7 600,453.7 600,271.5 			"/>
			<g id="XMLID_313_">
				<path id="XMLID_314_" d="M359.7,385.5l41.3-77.9l-65,0.2v182.2h15.2v-96.2l45.2,60h15L359.7,385.5z M351.1,374v-53.3h28.5
					l-28.3,53.5L351.1,374z"/>
			</g>
			<g id="XMLID_309_">
				<path id="XMLID_310_" d="M635.6,271l-18.7,109.5L605,374v14l9.7,5.3l-10.3,60.4h11.9l9.1-54.6l24.7,13.4l15.8,77.6h15.5
					L635.6,271z M627.4,386.2l7.7-46.5l11.6,57L627.4,386.2z"/>
			</g>
			<polygon id="XMLID_308_" points="488.5,431.8 488.5,271.8 473.4,271.8 473.4,453.9 534.3,421.1 534.3,407.1 			"/>
			<g id="XMLID_304_">
				<path id="XMLID_305_" d="M191.9,271.3l-18.7,109.5l-11.9-6.5v14l9.7,5.3l-10.3,60.4h11.9l9.1-54.6l24.7,13.4l15.8,77.6h15.5
					L191.9,271.3z M183.7,386.5l7.7-46.5l11.6,57L183.7,386.5z"/>
			</g>
			<g id="XMLID_300_">
				<path id="XMLID_301_" d="M430.5,271l-18.7,109.5l-11.9-6.5v14l9.7,5.3l-10.3,60.4h11.9l9.1-54.6l24.7,13.4l15.8,77.6h15.5
					L430.5,271z M422.4,386.2l7.7-46.5l11.6,57L422.4,386.2z"/>
			</g>
			<g id="XMLID_297_">
				<polygon id="XMLID_299_" points="288.2,437.6 288.2,437.6 288.2,437.6 				"/>
				<path id="XMLID_298_" d="M331.9,363.4l0.1-9.9l-8.5,4.3l-33,16.7v13.8l28.9-14.7c-0.3,2.5-0.6,4.9-1,7.4c-1,5.8-2.3,11.6-4,17.1
					c-1.7,5.6-14.8,39.5-26.7,39.5c-12,0-13.8-29-14.3-34.7c-0.5-5.8-0.5-11.7-0.3-17.6c0.2-5.9,0.7-11.9,1.4-17.9
					c0.4-3,0.8-5.9,1.2-9c0.5-2.9,0.9-5.9,1.5-8.8c1.1-5.9,2.5-11.6,4.2-17.2c1.7-5.6,3.7-11.1,6-16.3c2.4-5.2,5.2-10.1,8.4-14.5
					c1.6-2.2,3.3-4.3,5.2-6.2c1.9-1.9,3.8-3.7,5.9-5.2c2.1-1.6,4.2-2.9,6.5-3.9c1.1-0.5,2.2-1,3.3-1.3c0.5-0.2,1.1-0.3,1.6-0.4
					l0.6-0.1c0.1,0,0.1,0,0.1,0l0.3,0l0.5,0l-0.4-12.5l-0.5,0l-0.3,0l-0.4,0c-0.5,0-1.2,0.1-1.6,0.1c-0.9,0.1-1.8,0.3-2.7,0.4
					c-1.8,0.4-3.4,0.9-5,1.5c-3.2,1.2-6.2,2.8-9.1,4.7c-5.7,3.7-10.6,8.4-14.8,13.7c-4.1,5.2-7.7,10.9-10.6,16.8
					c-2.9,5.9-5.4,12-7.4,18.3c-2,6.2-3.6,12.5-5,18.9c-0.7,3.2-1.2,6.4-1.8,9.5c-0.5,3.1-1,6.4-1.4,9.5c-0.8,6.4-1.4,12.9-1.7,19.4
					c-0.3,6.5-0.2,13.1,0.4,19.8c0.6,6.6,1.6,13.3,3.4,20c0.9,3.3,2.1,6.7,3.6,10c1.5,3.3,3.3,6.5,5.7,9.6c2.4,3,5.3,6,9.5,8.1
					c2.1,1,4.5,1.7,7.1,1.9l0.5,0l0.1,0l0.4,0l0.1,0l0.6,0c0.4,0,0.8-0.1,1.1-0.1l0.3,0l0.2,0l0.4-0.1c1.2-0.2,2.3-0.5,3.3-0.9
					c2.1-0.8,3.8-1.8,5.5-2.9c1.6-1.1,3.1-2.3,4.4-3.5c2.7-2.5,4.9-5.1,7-7.9c4.1-5.5,7.3-11.4,10-17.4c2.7-6.1,4.8-12.3,6.5-18.7
					c1.7-6.4,2.9-12.8,3.6-19.4C331.9,376.5,332.1,369.9,331.9,363.4L331.9,363.4z"/>
			</g>
		</g>
		<path id="XMLID_293_" d="M473.7,246.1c-0.7,1.8-1.3,3.5-1.9,5.1c-1.6-2.6-1-4.2,3.6-8.8c-1.9-1.8-3-1.3-6.3,3.2
			c-0.4-2.9,0.9-4.9,3-5.9c1.9-0.9,4.3-0.9,6.7-1.3c-0.4-0.3-0.7-0.8-1.2-0.9c-6.7-2.3-13.4-4.6-20.1-6.9c-0.4-0.1-0.7-0.2-1.1-0.2
			c-3.7,0.2-5.9-1.8-7.9-4.7c-2.1-2.9-2.8-5.8-2.4-9.3c0.1-0.7-1-2.2-1.4-2.2c-6.5,0.5-13.1,0.7-19.3,2.2c-3.3,0.8-6.1,4-9.1,6
			c-2.6,1.7-5,3.8-7.8,4.9c-4.2,1.7-7.2,4.4-9.2,8.4c-4,7.9-7.8,15.9-11.8,23.9c-1.5,3-3.1,6.1-4.9,8.9c-0.8,1.3-2.1,2.1-3.7,3.7
			c-0.3-1.9-0.5-2.8-0.7-4.2c-2.2,1.7-4.2,3.2-6.3,4.8c-2.4,1.8-4.9,3.5-7.4,5.2c-1.5,1-3,1.4-3.4-1c-2.2,1.7-4.3,3.4-6.8,5.3
			c-0.6-1.4-0.9-2.2-1.1-2.8c-1.1,0.1-2.2,0.3-3.2,0.4c0.1-1.1,0.3-2.2,0.4-3.5c-0.2,0-0.7,0-1.2,0c-2.4-0.1-3.2-1.4-1.9-3.5
			c1.4-2.3,3-4.6,4.2-7.2c-1.1,0.9-2.1,1.7-3.2,2.6c5.4-12.4,12.9-23.6,19.6-35.6c-2.3,1.5-4.8,3-7,4.6c-5.2,3.8-10.3,7.7-15.5,11.5
			c-1.3,0.9-2.7,1.7-4.2,2.3c-0.7,0.3-1.9,0-2.5-0.5c-0.5-0.4-0.4-1.5-0.4-2.3c0-0.5,0.4-1.1,0.7-1.5c3.6-4.8,7.2-9.7,10.9-14.5
			c5-6.3,10.3-12.4,15.1-18.9c5.2-7.1,6.8-15.4,7.6-24c0.1-1.2,0.2-2.4,0.3-3.7c0-0.2-0.2-0.3-0.3-0.5c-2.1,0.9-4.2,1.9-7.1,3.2
			c0.4-1.5,0.4-2.5,0.9-3.1c5.8-6.8,11.5-13.8,17.7-20.4c8-8.5,16.4-16.6,24.3-25.1c2.8-3,5.1-6.6,7.3-10.2c4-6.6,9.7-11.6,15.9-16
			c2.4-1.7,4.8-3.4,7.3-4.9c6.4-4.1,12.1-9,17.8-14c4.9-4.3,10.9-7.5,16.1-11.5c5.6-4.3,11-8.9,16.4-13.5
			c5.8-4.9,12.6-7.8,19.7-10.2c2.6-0.8,5.6-0.4,8-1.4c4-1.5,7.9-3.4,11.5-5.6c5.4-3.4,10.9-6.4,17.3-7.2c0.6-0.1,1.3,0,2.2,0.2
			c-10.5,6.2-17.7,15.2-24.2,25.9c6.3-0.9,11.8-1.8,17.3-2.3c5.5-0.5,11.1-0.5,16.6-0.8c0.1,0.3,0.2,0.7,0.3,1
			c-1.2,0.5-2.4,1.1-3.6,1.5c-5.1,1.8-10.9,1.9-15.3,5.5c-1.7,1.4-3.2,3.1-4.4,4.9c-4.3,6.7-8.3,13.5-12.7,20.1
			c-1.2,1.7-3.1,3-4.9,4.2c-4.8,3.3-7,8-7.7,13.6c-0.8,6.6-1,13.4-2.3,19.9c-0.7,3.6-2.7,6.9-4.6,10.2c-1.3,2.3-3.4,4.1-5,6.2
			c-2.9,3.7-2.4,8.2-2.9,12.5c-1,8.1-0.9,16.5-3.1,24.3c-1.7,6.1-5.6,11.7-9.6,16.8c-1.5,1.9-2.8,3.8-4,5.8c-0.8,1.2-2,2.1-3.4,3.6
			c0.6,0.7,1.3,1.6,2.2,2.3c5.9,4,12.1,7.7,17.8,12.1c2.7,2,5.6,2.9,8.5,3.2c3.2,0.4,6.7-0.7,9.9-1.5c3.8-0.9,7.5-0.1,8.8,2.3
			c0.1,0.1,0,0.3,0,0.5c-1.2-0.6-2.5-1.1-4.1-1.8c-0.6,5.8-5.7,1.3-8,3.8c1.6,0.8,3,1.6,4.5,2.4c-0.1,0.3-0.3,0.5-0.4,0.8
			c-0.9-0.4-1.8-0.9-3.1-1.4c-0.4,1-0.7,1.8-1.3,3.4c3.8,0.1,7.2,0.1,10.6,0.3c2.4,0.1,4.3,1,5.2,3.6c-1.6-0.7-3-1.4-4.3-2
			c-0.1-0.1-0.4,0.1-0.5,0.2c-4.6,5.4-9.7-0.2-14.6,1.1c0.2,1.3,0.4,2.9,0.7,4.8c-1.5-1.8-2.5-3.6-4-4.4c-1.5-0.8-3.5-0.4-5.3-0.9
			c-2.1-0.6-4.3-1.3-6.2-2.4c-1.5-0.9-2.6-1-4.2-0.2c-2.6,1.3-5.2,2.5-7.9,3.3c-1.2,0.3-2.7-0.5-4-0.9
			C474.2,246.8,474,246.5,473.7,246.1z M487.3,235.2c0-0.3,0.1-0.5,0.1-0.8c-0.8-0.5-1.6-1-2.3-1.5c-6.3-4.3-12.6-8.6-19-12.8
			c-2-1.3-4.3-0.2-5.3,2c-0.9,2-0.1,3.9,2.2,4.8c6.8,2.6,13.5,5.3,20.4,7.8C484.6,235.1,486,235,487.3,235.2z"/>
	</g>
	<g id="XMLID_214_">
		<path id="XMLID_290_" d="M224.2,542.2V525c0-4.9,2.6-7.9,7.4-7.9c4.8,0,7.4,2.9,7.4,7.9v3.4h-4.8v-3.7c0-2.1-1-3-2.5-3
			s-2.5,0.9-2.5,3v17.9c0,2.1,1,2.9,2.5,2.9s2.5-0.8,2.5-2.9v-4.9h4.8v4.5c0,4.9-2.6,7.9-7.4,7.9
			C226.8,550.1,224.2,547.2,224.2,542.2z"/>
		<path id="XMLID_288_" d="M242,517.6h13.7v4.6h-8.7v8.5h6.9v4.6h-6.9v9.8h8.7v4.6H242V517.6z"/>
		<path id="XMLID_286_" d="M258.6,517.6h6.3l4.9,19.2h0.1v-19.2h4.5v32h-5.2l-6-23.4h-0.1v23.4h-4.5V517.6z"/>
		<path id="XMLID_284_" d="M282.1,522.2h-5.3v-4.6h15.5v4.6h-5.3v27.4h-5V522.2z"/>
		<path id="XMLID_281_" d="M294.8,517.6h7.5c5.2,0,7.4,2.4,7.4,7.4v2c0,3.3-1.1,5.4-3.3,6.3v0.1c2.5,0.8,3.3,3.2,3.3,6.8v5.6
			c0,1.6,0,2.7,0.5,3.9h-5.1c-0.3-0.8-0.5-1.3-0.5-3.9v-5.9c0-3-0.9-3.9-3.2-3.9h-1.7v13.7h-5V517.6z M301.6,531.4
			c1.9,0,3-0.8,3-3.4v-2.5c0-2.3-0.8-3.3-2.6-3.3h-2.3v9.1H301.6z"/>
		<path id="XMLID_278_" d="M312.8,542v-16.8c0-5.1,2.7-8,7.6-8s7.6,2.9,7.6,8V542c0,5.1-2.7,8-7.6,8S312.8,547.2,312.8,542z
			 M323.1,542.4v-17.5c0-2.3-1-3.2-2.6-3.2s-2.6,0.9-2.6,3.2v17.5c0,2.3,1,3.2,2.6,3.2S323.1,544.7,323.1,542.4z"/>
		<path id="XMLID_276_" d="M337.9,542v-1.8h4.8v2.2c0,2.3,1,3.1,2.6,3.1c1.6,0,2.6-0.8,2.6-3.2c0-2.7-1-4.3-4.3-7.2
			c-4.2-3.7-5.6-6.3-5.6-10c0-5,2.6-8,7.5-8c4.9,0,7.3,2.9,7.3,8v1.3h-4.8v-1.6c0-2.3-0.9-3.2-2.5-3.2c-1.6,0-2.5,0.9-2.5,3.1
			c0,2.3,1.1,4,4.3,6.9c4.2,3.7,5.5,6.3,5.5,10.2c0,5.2-2.7,8.1-7.6,8.1S337.9,547.2,337.9,542z"/>
		<path id="XMLID_273_" d="M355.4,542v-16.8c0-5.1,2.7-8,7.6-8c4.9,0,7.6,2.9,7.6,8V542c0,5.1-2.7,8-7.6,8
			C358.1,550.1,355.4,547.2,355.4,542z M365.7,542.4v-17.5c0-2.3-1-3.2-2.6-3.2c-1.6,0-2.6,0.9-2.6,3.2v17.5c0,2.3,1,3.2,2.6,3.2
			C364.6,545.5,365.7,544.7,365.7,542.4z"/>
		<path id="XMLID_271_" d="M373.7,542.2V525c0-4.9,2.6-7.9,7.4-7.9c4.8,0,7.4,2.9,7.4,7.9v3.4h-4.8v-3.7c0-2.1-1-3-2.5-3
			s-2.5,0.9-2.5,3v17.9c0,2.1,1,2.9,2.5,2.9s2.5-0.8,2.5-2.9v-4.9h4.8v4.5c0,4.9-2.6,7.9-7.4,7.9
			C376.3,550.1,373.7,547.2,373.7,542.2z"/>
		<path id="XMLID_269_" d="M391.6,517.6h5v32h-5V517.6z"/>
		<path id="XMLID_266_" d="M404.2,517.6h6.8l5.2,32h-5l-0.9-6.4v0.1h-5.7l-0.9,6.3H399L404.2,517.6z M409.7,539l-2.2-15.8h-0.1
			l-2.2,15.8H409.7z"/>
		<path id="XMLID_264_" d="M418.7,517.6h5v27.4h8.3v4.6h-13.3V517.6z"/>
		<path id="XMLID_261_" d="M445.6,517.6h6.8l5.2,32h-5l-0.9-6.4v0.1H446l-0.9,6.3h-4.7L445.6,517.6z M451.1,539l-2.2-15.8h-0.1
			l-2.2,15.8H451.1z"/>
		<path id="XMLID_259_" d="M459.8,542v-24.4h5v24.8c0,2.3,1,3.1,2.6,3.1c1.6,0,2.6-0.8,2.6-3.1v-24.8h4.8V542c0,5.1-2.6,8-7.5,8
			C462.3,550.1,459.8,547.2,459.8,542z"/>
		<path id="XMLID_257_" d="M482.2,522.2H477v-4.6h15.5v4.6h-5.3v27.4h-5V522.2z"/>
		<path id="XMLID_254_" d="M494.4,542v-16.8c0-5.1,2.7-8,7.6-8c4.9,0,7.6,2.9,7.6,8V542c0,5.1-2.7,8-7.6,8
			C497.1,550.1,494.4,547.2,494.4,542z M504.6,542.4v-17.5c0-2.3-1-3.2-2.6-3.2c-1.6,0-2.6,0.9-2.6,3.2v17.5c0,2.3,1,3.2,2.6,3.2
			C503.6,545.5,504.6,544.7,504.6,542.4z"/>
		<path id="XMLID_252_" d="M512.3,531.4h10.1v4.6h-10.1V531.4z"/>
		<path id="XMLID_250_" d="M525,542v-16.8c0-5.1,2.6-8,7.5-8c4.9,0,7.5,2.9,7.5,8v2.7h-4.8v-3.1c0-2.3-1-3.2-2.6-3.2
			s-2.6,0.9-2.6,3.2v17.5c0,2.3,1,3.1,2.6,3.1s2.6-0.8,2.6-3.1v-6.3h-2.5v-4.6h7.3V542c0,5.1-2.6,8-7.5,8
			C527.6,550.1,525,547.2,525,542z"/>
		<path id="XMLID_248_" d="M543.3,517.6H557v4.6h-8.7v8.5h6.9v4.6h-6.9v9.8h8.7v4.6h-13.7V517.6z"/>
		<path id="XMLID_245_" d="M559.9,517.6h7.5c5.2,0,7.5,2.4,7.5,7.4v2c0,3.3-1.1,5.4-3.3,6.3v0.1c2.5,0.8,3.3,3.2,3.3,6.8v5.6
			c0,1.6,0,2.7,0.5,3.9h-5.1c-0.3-0.8-0.5-1.3-0.5-3.9v-5.9c0-3-0.9-3.9-3.2-3.9h-1.7v13.7h-5V517.6z M566.7,531.4
			c1.9,0,3-0.8,3-3.4v-2.5c0-2.3-0.8-3.3-2.6-3.3h-2.3v9.1H566.7z"/>
		<path id="XMLID_243_" d="M578.3,517.6h5v32h-5V517.6z"/>
		<path id="XMLID_229_" d="M587,517.6h7.7c5,0,7.5,2.8,7.5,7.9v16.2c0,5.1-2.5,7.9-7.5,7.9H587V517.6z M594.6,545.1
			c1.6,0,2.6-0.8,2.6-3.1v-16.6c0-2.3-1-3.1-2.6-3.1h-2.6v22.9H594.6z"/>
		<path id="XMLID_223_" d="M605.2,542v-16.8c0-5.1,2.7-8,7.6-8c4.9,0,7.6,2.9,7.6,8V542c0,5.1-2.7,8-7.6,8
			C607.9,550.1,605.2,547.2,605.2,542z M615.5,542.4v-17.5c0-2.3-1-3.2-2.6-3.2s-2.6,0.9-2.6,3.2v17.5c0,2.3,1,3.2,2.6,3.2
			S615.5,544.7,615.5,542.4z"/>
	</g>
</g>
</svg>
